<?xml version="1.0" encoding="UTF-8" standalone="no"?>
<svg width="183px" height="60px" viewBox="0 0 183 60" version="1.1" xmlns="http://www.w3.org/2000/svg" xmlns:xlink="http://www.w3.org/1999/xlink" xmlns:sketch="http://www.bohemiancoding.com/sketch/ns">
    <!-- Generator: Sketch 3.5.2 (25235) - http://www.bohemiancoding.com/sketch -->
    <title>Page 1</title>
    <desc>Created with Sketch.</desc>
    <defs>
        <path id="path-1" d="M0,0.418 L182.883,0.418 L182.883,60 L0,60 L0,0.418 Z"></path>
    </defs>
    <g id="Page-1" stroke="none" stroke-width="1" fill="none" fill-rule="evenodd" sketch:type="MSPage">
        <g sketch:type="MSLayerGroup">
            <path d="M3.467,55.086 L2.414,55.086 L2.414,49.883 L0.397,49.883 L0.397,48.918 L5.485,48.918 L5.485,49.883 L3.467,49.883 L3.467,55.086 Z M11.796,55.086 L10.742,55.086 L10.742,52.433 L7.775,52.433 L7.775,55.086 L6.732,55.086 L6.732,48.918 L7.775,48.918 L7.775,51.489 L10.742,51.489 L10.742,48.918 L11.796,48.918 L11.796,55.086 Z M17.98,55.086 L13.881,55.086 L13.881,48.918 L17.98,48.918 L17.98,49.883 L14.934,49.883 L14.934,51.489 L17.803,51.489 L17.803,52.414 L14.934,52.414 L14.934,54.127 L17.98,54.127 L17.98,55.086 Z M26.204,52.698 L24.746,52.698 L24.746,51.774 L27.212,51.774 L27.212,54.663 C26.595,55.014 25.851,55.235 24.973,55.235 C23.122,55.235 21.612,53.941 21.612,52.012 C21.612,49.966 23.21,48.768 25.115,48.768 C25.737,48.768 26.263,48.839 26.774,49.007 L26.774,50.018 C26.237,49.816 25.639,49.736 25.115,49.736 C23.561,49.736 22.736,50.706 22.736,52.001 C22.736,53.35 23.674,54.301 25.026,54.301 C25.492,54.301 25.862,54.239 26.204,54.099 L26.204,52.698 Z M33.118,55.086 L29.018,55.086 L29.018,48.918 L33.118,48.918 L33.118,49.883 L30.07,49.883 L30.07,51.489 L32.942,51.489 L32.942,52.414 L30.07,52.414 L30.07,54.127 L33.118,54.127 L33.118,55.086 Z M34.552,52.001 C34.552,50.148 35.934,48.768 37.712,48.768 C39.498,48.768 40.818,50.148 40.818,52.001 C40.818,53.852 39.442,55.235 37.659,55.235 C35.871,55.235 34.552,53.852 34.552,52.001 L34.552,52.001 Z M39.695,52.001 C39.695,50.699 38.868,49.701 37.678,49.701 C36.502,49.701 35.677,50.699 35.677,52.001 C35.677,53.305 36.502,54.301 37.695,54.301 C38.868,54.301 39.695,53.305 39.695,52.001 L39.695,52.001 Z M43.635,55.086 L42.583,55.086 L42.583,48.918 L44.519,48.918 C46.135,48.918 46.979,49.771 46.979,50.927 C46.979,51.736 46.557,52.41 45.749,52.737 L47.303,55.086 L46.072,55.086 L44.74,52.963 L43.635,52.963 L43.635,55.086 Z M44.582,52.03 C45.452,52.03 45.87,51.62 45.87,50.955 C45.87,50.283 45.452,49.871 44.582,49.871 L43.635,49.871 L43.635,52.03 L44.582,52.03 Z M52.908,52.698 L51.453,52.698 L51.453,51.774 L53.916,51.774 L53.916,54.663 C53.303,55.014 52.555,55.235 51.678,55.235 C49.829,55.235 48.32,53.941 48.32,52.012 C48.32,49.966 49.918,48.768 51.82,48.768 C52.445,48.768 52.969,48.839 53.477,49.007 L53.477,50.018 C52.943,49.816 52.346,49.736 51.82,49.736 C50.267,49.736 49.441,50.706 49.441,52.001 C49.441,53.35 50.381,54.301 51.733,54.301 C52.197,54.301 52.565,54.239 52.908,54.099 L52.908,52.698 Z M59.822,55.086 L55.727,55.086 L55.727,48.918 L59.822,48.918 L59.822,49.883 L56.777,49.883 L56.777,51.489 L59.645,51.489 L59.645,52.414 L56.777,52.414 L56.777,54.127 L59.822,54.127 L59.822,55.086 Z M68.095,55.129 L66.539,51.736 L65.035,55.129 L64.761,55.129 L62.857,48.918 L63.94,48.918 L65.08,52.838 L66.491,49.72 L66.666,49.72 L68.095,52.834 L69.247,48.918 L70.255,48.918 L68.369,55.129 L68.095,55.129 Z M73.297,48.875 L76.09,55.086 L74.974,55.086 L74.438,53.864 L71.854,53.864 L71.316,55.086 L70.239,55.086 L73.026,48.875 L73.297,48.875 Z M72.239,52.982 L74.053,52.982 L73.142,50.91 L72.239,52.982 Z M76.931,53.914 C77.485,54.169 78.082,54.301 78.658,54.301 C79.407,54.301 79.671,53.871 79.671,53.423 C79.671,52.875 79.274,52.724 78.379,52.357 C77.616,52.046 76.81,51.66 76.81,50.609 C76.81,49.545 77.616,48.768 78.925,48.768 C79.407,48.768 79.861,48.854 80.291,49.007 L80.291,50.03 L80.276,50.03 C79.889,49.853 79.344,49.701 78.879,49.701 C78.196,49.701 77.877,50.037 77.877,50.488 C77.877,50.971 78.231,51.111 79.123,51.465 C79.898,51.774 80.737,52.161 80.737,53.295 C80.737,54.297 80.038,55.235 78.616,55.235 C77.975,55.235 77.406,55.129 76.912,54.939 L76.912,53.914 L76.931,53.914 Z M87.458,55.086 L86.405,55.086 L86.405,52.433 L83.441,52.433 L83.441,55.086 L82.399,55.086 L82.399,48.918 L83.441,48.918 L83.441,51.489 L86.405,51.489 L86.405,48.918 L87.458,48.918 L87.458,55.086 Z M90.601,55.086 L89.548,55.086 L89.548,48.918 L90.601,48.918 L90.601,55.086 Z M97.75,55.129 L97.394,55.129 L93.687,51.077 L93.687,55.086 L92.687,55.086 L92.687,48.875 L93.051,48.875 L96.751,52.942 L96.751,48.918 L97.75,48.918 L97.75,55.129 Z M104.105,52.698 L102.644,52.698 L102.644,51.774 L105.112,51.774 L105.112,54.663 C104.498,55.014 103.753,55.235 102.871,55.235 C101.021,55.235 99.514,53.941 99.514,52.012 C99.514,49.966 101.112,48.768 103.013,48.768 C103.636,48.768 104.164,48.839 104.673,49.007 L104.673,50.018 C104.138,49.816 103.543,49.736 103.013,49.736 C101.462,49.736 100.637,50.706 100.637,52.001 C100.637,53.35 101.578,54.301 102.926,54.301 C103.395,54.301 103.761,54.239 104.105,54.099 L104.105,52.698 Z M109.06,55.086 L108.01,55.086 L108.01,49.883 L105.989,49.883 L105.989,48.918 L111.08,48.918 L111.08,49.883 L109.06,49.883 L109.06,55.086 Z M111.734,52.001 C111.734,50.148 113.115,48.768 114.891,48.768 C116.686,48.768 118,50.148 118,52.001 C118,53.852 116.624,55.235 114.842,55.235 C113.051,55.235 111.734,53.852 111.734,52.001 L111.734,52.001 Z M116.877,52.001 C116.877,50.699 116.052,49.701 114.861,49.701 C113.682,49.701 112.858,50.699 112.858,52.001 C112.858,53.305 113.682,54.301 114.879,54.301 C116.052,54.301 116.877,53.305 116.877,52.001 L116.877,52.001 Z M124.827,55.129 L124.465,55.129 L120.763,51.077 L120.763,55.086 L119.761,55.086 L119.761,48.875 L120.123,48.875 L123.827,52.942 L123.827,48.918 L124.827,48.918 L124.827,55.129 Z M133.977,52.68 C133.977,54.286 132.909,55.235 131.443,55.235 C129.958,55.235 128.935,54.312 128.935,52.68 L128.935,48.918 L129.986,48.918 L129.986,52.629 C129.986,53.71 130.529,54.297 131.457,54.297 C132.373,54.297 132.924,53.703 132.924,52.629 L132.924,48.918 L133.977,48.918 L133.977,52.68 Z M141.04,55.129 L140.678,55.129 L136.98,51.077 L136.98,55.086 L135.978,55.086 L135.978,48.875 L136.336,48.875 L140.044,52.942 L140.044,48.918 L141.04,48.918 L141.04,55.129 Z M144.181,55.086 L143.128,55.086 L143.128,48.918 L144.181,48.918 L144.181,55.086 Z M148.085,55.129 L145.351,48.918 L146.491,48.918 L148.235,52.99 L149.98,48.918 L151.088,48.918 L148.357,55.129 L148.085,55.129 Z M156.351,55.086 L152.254,55.086 L152.254,48.918 L156.351,48.918 L156.351,49.883 L153.308,49.883 L153.308,51.489 L156.174,51.489 L156.174,52.414 L153.308,52.414 L153.308,54.127 L156.351,54.127 L156.351,55.086 Z M159.256,55.086 L158.199,55.086 L158.199,48.918 L160.141,48.918 C161.756,48.918 162.598,49.771 162.598,50.927 C162.598,51.736 162.18,52.41 161.368,52.737 L162.923,55.086 L161.693,55.086 L160.357,52.963 L159.256,52.963 L159.256,55.086 Z M160.2,52.03 C161.069,52.03 161.489,51.62 161.489,50.955 C161.489,50.283 161.069,49.871 160.2,49.871 L159.256,49.871 L159.256,52.03 L160.2,52.03 Z M163.939,53.914 C164.491,54.169 165.086,54.301 165.666,54.301 C166.411,54.301 166.676,53.871 166.676,53.423 C166.676,52.875 166.28,52.724 165.387,52.357 C164.626,52.046 163.816,51.66 163.816,50.609 C163.816,49.545 164.626,48.768 165.931,48.768 C166.411,48.768 166.87,48.854 167.3,49.007 L167.3,50.03 L167.282,50.03 C166.896,49.853 166.352,49.701 165.887,49.701 C165.201,49.701 164.887,50.037 164.887,50.488 C164.887,50.971 165.236,51.111 166.135,51.465 C166.903,51.774 167.75,52.161 167.75,53.295 C167.75,54.297 167.044,55.235 165.624,55.235 C164.984,55.235 164.416,55.129 163.922,54.939 L163.922,53.914 L163.939,53.914 Z M170.459,55.086 L169.404,55.086 L169.404,48.918 L170.459,48.918 L170.459,55.086 Z M174.774,55.086 L173.723,55.086 L173.723,49.883 L171.705,49.883 L171.705,48.918 L176.79,48.918 L176.79,49.883 L174.774,49.883 L174.774,55.086 Z M179.564,55.086 L179.564,52.554 L177.338,48.918 L178.546,48.918 L180.101,51.593 L181.643,48.918 L182.827,48.918 L180.612,52.566 L180.612,55.086 L179.564,55.086 Z M10.184,1.925 L11.416,1.778 L11.599,5.105 L10.938,5.105 L9.945,2.752 L7.097,2.752 L7.097,13.1 L8.824,13.522 L8.824,14.129 L3.568,14.129 L3.568,13.522 L5.314,13.1 L5.314,2.752 L2.465,2.752 L1.473,5.105 L0.811,5.105 L0.976,1.778 L2.226,1.925 L10.184,1.925 Z M18.234,13.503 L19.281,13.136 L19.281,8.486 C19.208,7.2 18.822,6.483 17.59,6.483 C16.396,6.483 15.348,7.494 15.348,7.531 L15.348,13.136 L16.561,13.503 L16.561,14.129 L12.628,14.129 L12.628,13.503 L13.786,13.1 L13.786,1.87 L12.555,1.392 L12.555,0.896 L15.348,0.418 L15.348,6.924 C15.661,6.538 16.818,5.252 18.344,5.252 C20.053,5.252 20.844,5.987 20.844,8.34 L20.844,13.136 L22.038,13.522 L22.038,14.129 L18.234,14.129 L18.234,13.503 Z M23.177,10.14 C23.177,7.402 24.941,5.252 27.515,5.252 C29.555,5.252 30.749,6.63 30.749,9.148 L24.666,9.148 L24.666,9.332 C24.666,11.61 25.971,13.026 27.882,13.026 C29.445,13.026 30.437,11.648 30.437,11.648 L30.804,11.868 C30.804,11.868 29.941,14.423 27.202,14.423 C24.151,14.423 23.177,11.721 23.177,10.14 L23.177,10.14 Z M24.758,8.431 L28.912,8.431 C28.893,7.182 28.323,6.06 27.11,6.06 C25.952,6.06 25.033,7.071 24.758,8.431 L24.758,8.431 Z M36.28,8.376 C36.28,4.792 39.405,1.613 43.522,1.613 C45.065,1.613 46.241,2.017 47.252,2.605 L47.363,5.583 L46.646,5.583 L45.617,3.157 C45.102,2.826 44.367,2.513 43.172,2.513 C40.066,2.513 38.284,5.178 38.284,8.082 C38.284,11.813 40.71,13.67 43.338,13.67 C44.514,13.67 45.157,13.43 45.525,13.265 L45.525,9.516 L43.816,9.038 L43.816,8.523 L48.337,8.523 L48.337,9.129 L47.289,9.424 L47.289,13.229 L46.719,13.541 C46.003,13.945 44.496,14.589 42.842,14.589 C38.026,14.589 36.28,11.538 36.28,8.376 L36.28,8.376 Z M49.623,13.503 L50.781,13.118 L50.781,1.999 L49.605,1.65 L49.605,1.061 L52.343,0.418 L52.343,13.136 L53.593,13.503 L53.593,14.129 L49.623,14.129 L49.623,13.503 Z M54.787,9.975 C54.787,7.347 56.662,5.215 59.051,5.215 C61.661,5.215 63.315,6.851 63.315,9.626 C63.315,12.291 61.478,14.423 59.051,14.423 C56.276,14.423 54.787,12.347 54.787,9.975 L54.787,9.975 Z M59.272,13.614 C60.742,13.614 61.643,12.126 61.643,10.25 C61.643,7.549 60.503,6.005 58.849,6.005 C57.342,6.005 56.46,7.457 56.46,9.332 C56.46,11.354 57.305,13.614 59.272,13.614 L59.272,13.614 Z M66.182,14.073 L65.502,13.78 L65.502,1.999 L64.363,1.65 L64.363,1.061 L67.064,0.418 L67.064,6.667 C67.395,6.207 68.277,5.252 69.766,5.252 C71.475,5.252 73.258,6.428 73.258,9.424 C73.258,12.272 70.869,14.423 68.369,14.423 C67.34,14.423 66.623,14.257 66.182,14.073 L66.182,14.073 Z M67.064,7.31 L67.064,12.879 C67.064,12.879 67.873,13.614 68.957,13.614 C70.299,13.614 71.678,12.347 71.678,9.919 C71.678,7.788 70.556,6.428 68.976,6.428 C68.094,6.428 67.377,6.998 67.064,7.31 L67.064,7.31 Z M74.82,12.254 C74.82,10.784 75.885,10.122 77.778,9.626 L79.672,9.129 L79.672,8.174 C79.635,6.759 78.899,6.023 77.926,6.023 C77.374,6.023 76.915,6.263 76.767,6.355 L76.694,8.174 C76.694,8.174 76.234,8.229 75.959,8.229 C75.371,8.229 75.077,7.935 75.077,7.439 C75.077,6.593 76.694,5.252 78.587,5.252 C80.443,5.252 81.252,6.097 81.252,7.917 L81.252,12.879 C81.252,13.247 81.344,13.375 81.859,13.375 L82.778,13.375 L82.778,13.89 C82.778,13.89 81.712,14.35 81.031,14.35 C80.094,14.35 79.708,13.706 79.708,12.916 L79.653,12.916 C78.624,13.89 78.183,14.404 77.025,14.404 C76.051,14.404 74.82,13.724 74.82,12.254 L74.82,12.254 Z M79.672,12.162 L79.672,9.736 L77.907,10.325 C77.043,10.618 76.492,10.968 76.492,11.739 C76.492,12.677 77.209,13.155 77.999,13.155 C78.881,13.155 79.451,12.492 79.672,12.162 L79.672,12.162 Z M83.678,13.503 L84.836,13.118 L84.836,1.999 L83.66,1.65 L83.66,1.061 L86.398,0.418 L86.398,13.136 L87.648,13.503 L87.648,14.129 L83.678,14.129 L83.678,13.503 Z M9.174,26.398 L6.159,35.018 L4.818,35.018 L1.399,23.752 L0.242,23.274 L0.242,22.685 L4.928,22.685 L4.928,23.274 L3.347,23.752 L5.92,33.144 L8.696,24.984 L8.291,23.752 L6.711,23.274 L6.711,22.685 L11.673,22.685 L11.673,23.31 L10.129,23.752 L13.125,33.015 L15.698,23.917 L13.787,23.31 L13.787,22.685 L18.069,22.685 L18.069,23.274 L16.856,23.825 L13.474,35.018 L12.114,35.018 L9.174,26.398 Z M17.792,30.735 C17.792,28.108 19.667,25.976 22.056,25.976 C24.666,25.976 26.32,27.611 26.32,30.387 C26.32,33.052 24.482,35.184 22.056,35.184 C19.281,35.184 17.792,33.106 17.792,30.735 L17.792,30.735 Z M22.277,34.375 C23.747,34.375 24.648,32.886 24.648,31.012 C24.648,28.31 23.508,26.766 21.854,26.766 C20.347,26.766 19.465,28.218 19.465,30.092 C19.465,32.114 20.31,34.375 22.277,34.375 L22.277,34.375 Z M38.689,34.265 L39.737,33.897 L39.737,29.247 C39.663,27.96 39.277,27.244 38.046,27.244 C36.961,27.244 36.079,27.998 35.803,28.291 L35.803,33.897 L36.998,34.283 L36.998,34.889 L33.193,34.889 L33.193,34.265 L34.241,33.897 L34.241,29.247 C34.167,27.96 33.781,27.244 32.55,27.244 C31.356,27.244 30.308,28.255 30.308,28.291 L30.308,33.897 L31.521,34.265 L31.521,34.889 L27.588,34.889 L27.588,34.265 L28.746,33.878 L28.746,27.685 L27.514,27.39 L27.514,26.894 L29.775,26.012 L29.867,26.012 L30.271,27.685 L30.29,27.685 C30.602,27.317 31.76,26.012 33.304,26.012 C34.903,26.012 35.472,26.674 35.638,27.831 L35.675,27.831 C35.858,27.593 37.108,26.012 38.817,26.012 C40.508,26.012 41.299,26.748 41.299,29.1 L41.299,33.897 L42.493,34.283 L42.493,34.889 L38.689,34.889 L38.689,34.265 Z M43.613,30.901 C43.613,28.162 45.378,26.012 47.951,26.012 C49.991,26.012 51.186,27.39 51.186,29.909 L45.102,29.909 L45.102,30.092 C45.102,32.372 46.407,33.786 48.318,33.786 C49.881,33.786 50.873,32.408 50.873,32.408 L51.241,32.629 C51.241,32.629 50.377,35.184 47.639,35.184 C44.588,35.184 43.613,32.482 43.613,30.901 L43.613,30.901 Z M45.194,29.192 L49.348,29.192 C49.329,27.942 48.76,26.82 47.547,26.82 C46.389,26.82 45.47,27.831 45.194,29.192 L45.194,29.192 Z M52.765,34.265 L53.924,33.878 L53.924,27.685 L52.692,27.39 L52.692,26.894 L54.953,26.012 L55.045,26.012 L55.449,27.685 L55.467,27.685 C55.78,27.317 56.938,26.012 58.481,26.012 C60.191,26.012 60.981,26.748 60.981,29.1 L60.981,33.897 L62.176,34.283 L62.176,34.889 L58.371,34.889 L58.371,34.265 L59.419,33.897 L59.419,29.247 C59.345,27.96 58.959,27.244 57.728,27.244 C56.533,27.244 55.486,28.255 55.486,28.291 L55.486,33.897 L56.699,34.265 L56.699,34.889 L52.765,34.889 L52.765,34.265 Z M66.014,34.522 L65.721,31.949 L66.327,31.949 L67.264,33.97 C67.54,34.209 67.926,34.522 68.771,34.522 C69.709,34.522 70.352,33.97 70.352,33.125 C70.352,32.445 69.966,31.894 68.569,31.269 L67.834,30.938 C66.566,30.368 65.941,29.706 65.941,28.53 C65.941,27.116 67.43,25.976 69.102,25.976 C69.782,25.976 70.554,26.178 71.271,26.564 L71.363,28.751 L70.811,28.751 L70.058,27.151 C69.837,26.968 69.47,26.693 68.827,26.693 C67.944,26.693 67.43,27.261 67.43,27.96 C67.43,28.696 67.816,29.155 68.919,29.651 L69.709,30.001 C71.344,30.717 71.877,31.525 71.877,32.519 C71.877,34.044 70.186,35.238 68.404,35.238 C67.466,35.238 66.621,34.889 66.014,34.522 L66.014,34.522 Z M77.096,34.283 L78.658,33.86 L78.658,23.752 L77.096,23.274 L77.096,22.685 L82.004,22.685 L82.004,23.274 L80.441,23.752 L80.441,33.86 L82.004,34.301 L82.004,34.889 L77.096,34.889 L77.096,34.283 Z M83.308,34.265 L84.466,33.878 L84.466,27.685 L83.235,27.39 L83.235,26.894 L85.495,26.012 L85.587,26.012 L85.992,27.685 L86.01,27.685 C86.322,27.317 87.48,26.012 89.024,26.012 C90.733,26.012 91.523,26.748 91.523,29.1 L91.523,33.897 L92.718,34.283 L92.718,34.889 L88.913,34.889 L88.913,34.265 L89.961,33.897 L89.961,29.247 C89.888,27.96 89.502,27.244 88.27,27.244 C87.076,27.244 86.028,28.255 86.028,28.291 L86.028,33.897 L87.241,34.265 L87.241,34.889 L83.308,34.889 L83.308,34.265 Z M94.316,34.522 L94.023,31.949 L94.629,31.949 L95.566,33.97 C95.843,34.209 96.227,34.522 97.074,34.522 C98.01,34.522 98.654,33.97 98.654,33.125 C98.654,32.445 98.268,31.894 96.871,31.269 L96.136,30.938 C94.868,30.368 94.243,29.706 94.243,28.53 C94.243,27.116 95.732,25.976 97.405,25.976 C98.085,25.976 98.857,26.178 99.573,26.564 L99.665,28.751 L99.113,28.751 L98.359,27.151 C98.139,26.968 97.772,26.693 97.128,26.693 C96.246,26.693 95.732,27.261 95.732,27.96 C95.732,28.696 96.117,29.155 97.221,29.651 L98.01,30.001 C99.647,30.717 100.179,31.525 100.179,32.519 C100.179,34.044 98.488,35.238 96.706,35.238 C95.768,35.238 94.923,34.889 94.316,34.522 L94.316,34.522 Z M102.422,33.088 L102.476,27.17 L101.19,27.17 L101.19,26.398 L102.532,26.067 L103.34,23.88 L103.965,23.88 L103.965,26.25 L106.428,26.25 L106.428,27.226 L104.003,27.226 L104.003,32.353 C104.003,33.824 104.535,33.934 105.234,33.934 C105.822,33.934 106.612,33.805 106.612,33.805 L106.722,34.265 C106.722,34.265 105.675,35.092 104.277,35.092 C102.825,35.092 102.403,34.227 102.422,33.088 L102.422,33.088 Z M107.53,34.265 L108.762,33.86 L108.762,27.574 L107.676,27.189 L107.676,26.546 L110.286,26.012 L110.286,33.878 L111.665,34.265 L111.665,34.889 L107.53,34.889 L107.53,34.265 Z M108.265,22.3 C108.265,21.693 108.797,21.179 109.405,21.179 C109.993,21.179 110.526,21.693 110.526,22.3 C110.526,22.906 109.993,23.422 109.405,23.422 C108.797,23.422 108.265,22.906 108.265,22.3 L108.265,22.3 Z M113.65,33.088 L113.705,27.17 L112.418,27.17 L112.418,26.398 L113.76,26.067 L114.569,23.88 L115.193,23.88 L115.193,26.25 L117.656,26.25 L117.656,27.226 L115.231,27.226 L115.231,32.353 C115.231,33.824 115.763,33.934 116.462,33.934 C117.051,33.934 117.841,33.805 117.841,33.805 L117.951,34.265 C117.951,34.265 116.903,35.092 115.506,35.092 C114.054,35.092 113.631,34.227 113.65,33.088 L113.65,33.088 Z M125.227,33.676 C125.082,33.842 123.886,35.202 122.159,35.202 C120.522,35.202 119.715,34.007 119.715,31.931 L119.715,27.409 L118.446,27.041 L118.446,26.361 L121.277,26.086 L121.277,31.765 C121.331,33.29 121.974,33.952 123.206,33.952 C124.327,33.952 125.155,33.088 125.155,33.088 L125.155,27.409 L123.665,27.078 L123.665,26.398 L126.717,26.123 L126.717,33.824 L128.206,34.191 L128.206,34.797 L125.762,35.165 L125.227,33.676 Z M129.914,33.088 L129.97,27.17 L128.682,27.17 L128.682,26.398 L130.024,26.067 L130.833,23.88 L131.459,23.88 L131.459,26.25 L133.922,26.25 L133.922,27.226 L131.494,27.226 L131.494,32.353 C131.494,33.824 132.027,33.934 132.726,33.934 C133.314,33.934 134.105,33.805 134.105,33.805 L134.215,34.265 C134.215,34.265 133.167,35.092 131.771,35.092 C130.319,35.092 129.895,34.227 129.914,33.088 L129.914,33.088 Z M142.284,32.408 C142.284,32.408 141.289,33.786 139.727,33.786 C137.816,33.786 136.512,32.372 136.512,30.092 L136.512,29.909 L142.596,29.909 C142.596,27.39 141.4,26.012 139.361,26.012 C136.788,26.012 135.022,28.162 135.022,30.901 C135.022,32.482 135.998,35.184 139.047,35.184 C141.786,35.184 142.65,32.629 142.65,32.629 L142.284,32.408 Z M138.956,26.82 C140.168,26.82 140.738,27.942 140.757,29.192 L136.603,29.192 C136.88,27.831 137.799,26.82 138.956,26.82 L138.956,26.82 Z M64.509,23.304 C64.509,22.642 64.105,22.093 63.151,21.891 C62.986,20.899 63.426,20.312 64.252,20.312 C64.949,20.312 65.738,20.918 65.738,22.314 C65.738,23.947 64.747,25.341 63.445,26.094 C63.445,26.094 63.133,25.688 63.096,25.634 C63.995,24.972 64.509,24.074 64.509,23.304 L64.509,23.304 Z" id="Fill-1" fill="#FFFFFF" sketch:type="MSShapeGroup"></path>
            <mask id="mask-2" sketch:name="Clip 4" fill="white">
                <use xlink:href="#path-1"></use>
            </mask>
            <g id="Clip-4"></g>
            <path d="M0,59.044 L182.883,59.044 L182.883,60 L0,60 L0,59.044 Z" id="Fill-3" fill="#AD9E6E" sketch:type="MSShapeGroup" mask="url(#mask-2)"></path>
            <path d="M0,44.06 L182.883,44.06 L182.883,45.02 L0,45.02 L0,44.06 Z" id="Fill-5" fill="#AD9E6E" sketch:type="MSShapeGroup" mask="url(#mask-2)"></path>
        </g>
    </g>
</svg>