<?xml version="1.0" encoding="UTF-8" standalone="no"?>
<svg width="23px" height="18px" viewBox="0 0 23 18" version="1.1" xmlns="http://www.w3.org/2000/svg" xmlns:xlink="http://www.w3.org/1999/xlink" xmlns:sketch="http://www.bohemiancoding.com/sketch/ns">
    <!-- Generator: Sketch 3.5.2 (25235) - http://www.bohemiancoding.com/sketch -->
    <title>Fill 1</title>
    <desc>Created with Sketch.</desc>
    <defs></defs>
    <g id="Page-1" stroke="none" stroke-width="1" fill="none" fill-rule="evenodd" sketch:type="MSPage">
        <g sketch:type="MSLayerGroup" transform="translate(0.000000, -1.000000)" id="Fill-1" fill="#009ADA">
            <path d="M19.9034,5.4642 C19.9104,5.6602 19.9184,5.8572 19.9184,6.0532 C19.9184,12.0652 15.3404,19.0002 6.9714,19.0002 C4.4024,19.0002 2.0084,18.2502 0.0004,16.9552 C0.3564,16.9992 0.7204,17.0202 1.0844,17.0202 C3.2164,17.0202 5.1744,16.2932 6.7314,15.0702 C4.7374,15.0342 3.0634,13.7162 2.4814,11.9122 C2.7584,11.9632 3.0414,11.9922 3.3404,11.9922 C3.7554,11.9922 4.1554,11.9342 4.5414,11.8322 C2.4594,11.4102 0.8874,9.5762 0.8874,7.3712 L0.8874,7.3122 C1.4994,7.6542 2.2054,7.8582 2.9474,7.8802 C1.7244,7.0652 0.9244,5.6752 0.9244,4.0962 C0.9244,3.2592 1.1494,2.4802 1.5424,1.8112 C3.7844,4.5622 7.1394,6.3742 10.9234,6.5632 C10.8434,6.2282 10.8064,5.8792 10.8064,5.5292 C10.8064,3.0192 12.8444,0.9812 15.3554,0.9812 C16.6654,0.9812 17.8444,1.5342 18.6734,2.4152 C19.7074,2.2112 20.6824,1.8332 21.5624,1.3092 C21.2204,2.3712 20.5004,3.2662 19.5614,3.8272 C20.4784,3.7172 21.3584,3.4702 22.1744,3.1132 C21.5624,4.0232 20.7914,4.8312 19.9034,5.4642" sketch:type="MSShapeGroup"></path>
        </g>
    </g>
</svg>