<?xml version="1.0" encoding="UTF-8" standalone="no"?>
<svg width="27px" height="21px" viewBox="0 0 27 21" version="1.1" xmlns="http://www.w3.org/2000/svg" xmlns:xlink="http://www.w3.org/1999/xlink" xmlns:sketch="http://www.bohemiancoding.com/sketch/ns">
    <!-- Generator: Sketch 3.5.2 (25235) - http://www.bohemiancoding.com/sketch -->
    <title>Fill 1</title>
    <desc>Created with Sketch.</desc>
    <defs></defs>
    <g id="Page-1" stroke="none" stroke-width="1" fill="none" fill-rule="evenodd" sketch:type="MSPage">
        <g sketch:type="MSLayerGroup" id="Fill-1" fill="#009ADA">
            <path d="M10.0443,15.9779 L10.0443,5.9339 L18.4143,10.9559 L10.0443,15.9779 Z M25.4443,2.4099 C24.4263,1.2729 23.2853,1.2659 22.7623,1.2019 C19.0143,0.9109 13.3943,0.9109 13.3943,0.9109 L13.3813,0.9109 C13.3813,0.9109 7.7613,0.9109 4.0143,1.2019 C3.4913,1.2659 2.3513,1.2729 1.3313,2.4099 C0.5303,3.2769 0.2683,5.2459 0.2683,5.2459 C0.2683,5.2459 0.0003,7.5569 0.0003,9.8689 L0.0003,12.0349 C0.0003,14.3469 0.2683,16.6579 0.2683,16.6579 C0.2683,16.6579 0.5293,18.6259 1.3313,19.4919 C2.3513,20.6279 3.6883,20.5939 4.2843,20.7129 C6.4263,20.9319 13.3883,20.9999 13.3883,20.9999 C13.3883,20.9999 19.0143,20.9899 22.7623,20.7029 C23.2853,20.6359 24.4263,20.6289 25.4443,19.4929 C26.2463,18.6269 26.5083,16.6589 26.5083,16.6589 C26.5083,16.6589 26.7763,14.3469 26.7763,12.0359 L26.7763,9.8689 C26.7763,7.5569 26.5083,5.2459 26.5083,5.2459 C26.5083,5.2459 26.2473,3.2769 25.4443,2.4099 L25.4443,2.4099 Z" sketch:type="MSShapeGroup"></path>
        </g>
    </g>
</svg>